<svg id="visual" viewBox="0 0 960 300" width="960" height="300" xmlns="http://www.w3.org/2000/svg" xmlns:xlink="http://www.w3.org/1999/xlink" version="1.1"><rect x="0" y="0" width="960" height="300" fill="#202731"></rect><path d="M0 175L40 165.3C80 155.7 160 136.3 240 134.7C320 133 400 149 480 145.5C560 142 640 119 720 113C800 107 880 118 920 123.5L960 129L960 301L920 301C880 301 800 301 720 301C640 301 560 301 480 301C400 301 320 301 240 301C160 301 80 301 40 301L0 301Z" fill="#66b8ee"></path><path d="M0 165L40 163.2C80 161.3 160 157.7 240 164.3C320 171 400 188 480 191.7C560 195.3 640 185.7 720 175.8C800 166 880 156 920 151L960 146L960 301L920 301C880 301 800 301 720 301C640 301 560 301 480 301C400 301 320 301 240 301C160 301 80 301 40 301L0 301Z" fill="#2b9ef4"></path><path d="M0 231L40 229.5C80 228 160 225 240 220.7C320 216.3 400 210.7 480 205.2C560 199.7 640 194.3 720 198C800 201.7 880 214.3 920 220.7L960 227L960 301L920 301C880 301 800 301 720 301C640 301 560 301 480 301C400 301 320 301 240 301C160 301 80 301 40 301L0 301Z" fill="#0081f5"></path><path d="M0 249L40 250C80 251 160 253 240 244.7C320 236.3 400 217.7 480 212.2C560 206.7 640 214.3 720 214C800 213.7 880 205.3 920 201.2L960 197L960 301L920 301C880 301 800 301 720 301C640 301 560 301 480 301C400 301 320 301 240 301C160 301 80 301 40 301L0 301Z" fill="#005eee"></path><path d="M0 269L40 264.3C80 259.7 160 250.3 240 248.7C320 247 400 253 480 257.2C560 261.3 640 263.7 720 268C800 272.3 880 278.7 920 281.8L960 285L960 301L920 301C880 301 800 301 720 301C640 301 560 301 480 301C400 301 320 301 240 301C160 301 80 301 40 301L0 301Z" fill="#3c31dd"></path></svg>