<svg xmlns="http://www.w3.org/2000/svg" version="1.1" xmlns:xlink="http://www.w3.org/1999/xlink" xmlns:svgjs="http://svgjs.dev/svgjs" width="960" height="300" preserveAspectRatio="none" viewBox="0 0 960 300"><g mask="url(&quot;#SvgjsMask3528&quot;)" fill="none"><rect width="960" height="300" x="0" y="0" fill="rgba(32, 39, 49, 1)"></rect><path d="M1040 300L0 300 L0 150.85Q42.22 113.07, 80 155.29Q124.9 152.19, 128 197.08Q142.65 163.73, 176 178.37Q190.02 144.39, 224 158.42Q255.75 142.16, 272 173.91Q304.86 158.76, 320 191.62Q344.81 136.43, 400 161.24Q429.19 142.44, 448 171.63Q480.56 156.19, 496 188.75Q503.13 147.88, 544 155Q573.42 136.42, 592 165.83Q644.5 138.33, 672 190.83Q717.09 155.92, 752 201.01Q767.02 136.03, 832 151.05Q862.34 133.39, 880 163.73Q926.56 130.28, 960 176.84Q1008.32 145.16, 1040 193.48z" fill="rgba(82, 208, 255, 1)"></path><path d="M1008 300L0 300 L0 198.38Q21.5 171.88, 48 193.38Q103.89 169.27, 128 225.17Q157.58 206.75, 176 236.32Q183.24 195.56, 224 202.79Q256.89 155.68, 304 188.57Q356.57 161.14, 384 213.71Q417.25 198.97, 432 232.22Q439.61 191.82, 480 199.43Q509.75 181.19, 528 210.94Q577.88 180.81, 608 230.69Q616.34 191.03, 656 199.36Q685.02 180.38, 704 209.41Q739.58 196.99, 752 232.57Q770 202.57, 800 220.58Q828.1 168.68, 880 196.77Q939.2 175.97, 960 235.17Q976.37 203.54, 1008 219.91z" fill="rgba(63, 155, 206, 1)"></path><path d="M976 300L0 300 L0 266.15Q40.77 226.92, 80 267.69Q97.17 236.86, 128 254.02Q146.99 225.01, 176 244Q207.11 195.11, 256 226.22Q311.72 201.94, 336 257.67Q385.26 226.93, 416 276.19Q422.33 234.52, 464 240.86Q480.16 209.03, 512 225.19Q549.99 215.18, 560 253.17Q610.41 223.58, 640 273.99Q663.78 217.77, 720 241.56Q749.74 223.3, 768 253.03Q802.43 239.46, 816 273.9Q833.11 211.01, 896 228.12Q945.63 197.75, 976 247.38z" fill="rgba(47, 106, 152, 1)"></path><path d="M992 300L0 300 L0 267.75Q60.08 247.83, 80 307.91Q93.15 273.06, 128 286.21Q157.66 267.87, 176 297.53Q187.38 260.9, 224 272.28Q254.26 254.54, 272 284.8Q307.33 272.13, 320 307.47Q340.35 247.82, 400 268.16Q430.61 250.77, 448 281.38Q479.46 264.84, 496 296.3Q525.78 278.08, 544 307.86Q547.12 262.98, 592 266.1Q640.46 234.56, 672 283.03Q723.1 254.13, 752 305.22Q772.3 245.52, 832 265.83Q882.9 236.73, 912 287.63Q961.55 257.18, 992 306.72z" fill="rgba(30, 61, 103, 1)"></path></g><defs><mask id="SvgjsMask3528"><rect width="960" height="300" fill="#ffffff"></rect></mask></defs></svg>