<svg id="visual" viewBox="0 0 960 300" width="960" height="300" xmlns="http://www.w3.org/2000/svg" xmlns:xlink="http://www.w3.org/1999/xlink" version="1.1"><rect x="0" y="0" width="960" height="300" fill="#202731"></rect><path d="M0 157L13.3 154.5C26.7 152 53.3 147 80 146.8C106.7 146.7 133.3 151.3 160 149.8C186.7 148.3 213.3 140.7 240 136.5C266.7 132.3 293.3 131.7 320 136.8C346.7 142 373.3 153 400 155.2C426.7 157.3 453.3 150.7 480 147.8C506.7 145 533.3 146 560 146.5C586.7 147 613.3 147 640 152.3C666.7 157.7 693.3 168.3 720 169.5C746.7 170.7 773.3 162.3 800 154.8C826.7 147.3 853.3 140.7 880 140.5C906.7 140.3 933.3 146.7 946.7 149.8L960 153L960 301L946.7 301C933.3 301 906.7 301 880 301C853.3 301 826.7 301 800 301C773.3 301 746.7 301 720 301C693.3 301 666.7 301 640 301C613.3 301 586.7 301 560 301C533.3 301 506.7 301 480 301C453.3 301 426.7 301 400 301C373.3 301 346.7 301 320 301C293.3 301 266.7 301 240 301C213.3 301 186.7 301 160 301C133.3 301 106.7 301 80 301C53.3 301 26.7 301 13.3 301L0 301Z" fill="#52d0ff"></path><path d="M0 212L13.3 206C26.7 200 53.3 188 80 186.5C106.7 185 133.3 194 160 199.7C186.7 205.3 213.3 207.7 240 205.3C266.7 203 293.3 196 320 193.2C346.7 190.3 373.3 191.7 400 193C426.7 194.3 453.3 195.7 480 195C506.7 194.3 533.3 191.7 560 191.3C586.7 191 613.3 193 640 193C666.7 193 693.3 191 720 187C746.7 183 773.3 177 800 178.7C826.7 180.3 853.3 189.7 880 191C906.7 192.3 933.3 185.7 946.7 182.3L960 179L960 301L946.7 301C933.3 301 906.7 301 880 301C853.3 301 826.7 301 800 301C773.3 301 746.7 301 720 301C693.3 301 666.7 301 640 301C613.3 301 586.7 301 560 301C533.3 301 506.7 301 480 301C453.3 301 426.7 301 400 301C373.3 301 346.7 301 320 301C293.3 301 266.7 301 240 301C213.3 301 186.7 301 160 301C133.3 301 106.7 301 80 301C53.3 301 26.7 301 13.3 301L0 301Z" fill="#3f9bce"></path><path d="M0 202L13.3 208C26.7 214 53.3 226 80 232.8C106.7 239.7 133.3 241.3 160 237.3C186.7 233.3 213.3 223.7 240 223.8C266.7 224 293.3 234 320 232.8C346.7 231.7 373.3 219.3 400 216.7C426.7 214 453.3 221 480 224.5C506.7 228 533.3 228 560 225.7C586.7 223.3 613.3 218.7 640 221C666.7 223.3 693.3 232.7 720 238C746.7 243.3 773.3 244.7 800 243.3C826.7 242 853.3 238 880 233.8C906.7 229.7 933.3 225.3 946.7 223.2L960 221L960 301L946.7 301C933.3 301 906.7 301 880 301C853.3 301 826.7 301 800 301C773.3 301 746.7 301 720 301C693.3 301 666.7 301 640 301C613.3 301 586.7 301 560 301C533.3 301 506.7 301 480 301C453.3 301 426.7 301 400 301C373.3 301 346.7 301 320 301C293.3 301 266.7 301 240 301C213.3 301 186.7 301 160 301C133.3 301 106.7 301 80 301C53.3 301 26.7 301 13.3 301L0 301Z" fill="#2f6a9a"></path><path d="M0 281L13.3 279.7C26.7 278.3 53.3 275.7 80 268.8C106.7 262 133.3 251 160 246.2C186.7 241.3 213.3 242.7 240 249.5C266.7 256.3 293.3 268.7 320 268.3C346.7 268 373.3 255 400 253.8C426.7 252.7 453.3 263.3 480 262.8C506.7 262.3 533.3 250.7 560 252.3C586.7 254 613.3 269 640 271C666.7 273 693.3 262 720 258.8C746.7 255.7 773.3 260.3 800 259.8C826.7 259.3 853.3 253.7 880 255.5C906.7 257.3 933.3 266.7 946.7 271.3L960 276L960 301L946.7 301C933.3 301 906.7 301 880 301C853.3 301 826.7 301 800 301C773.3 301 746.7 301 720 301C693.3 301 666.7 301 640 301C613.3 301 586.7 301 560 301C533.3 301 506.7 301 480 301C453.3 301 426.7 301 400 301C373.3 301 346.7 301 320 301C293.3 301 266.7 301 240 301C213.3 301 186.7 301 160 301C133.3 301 106.7 301 80 301C53.3 301 26.7 301 13.3 301L0 301Z" fill="#1e3d67"></path></svg>