<svg id="visual" viewBox="0 0 960 300" width="960" height="300" xmlns="http://www.w3.org/2000/svg" xmlns:xlink="http://www.w3.org/1999/xlink" version="1.1"><rect x="0" y="0" width="960" height="300" fill="#202731"></rect><path d="M0 141L13.3 143.5C26.7 146 53.3 151 80 151.2C106.7 151.3 133.3 146.7 160 148.2C186.7 149.7 213.3 157.3 240 161.5C266.7 165.7 293.3 166.3 320 161.2C346.7 156 373.3 145 400 142.8C426.7 140.7 453.3 147.3 480 150.2C506.7 153 533.3 152 560 151.5C586.7 151 613.3 151 640 145.7C666.7 140.3 693.3 129.7 720 128.5C746.7 127.3 773.3 135.7 800 143.2C826.7 150.7 853.3 157.3 880 157.5C906.7 157.7 933.3 151.3 946.7 148.2L960 145L960 0L946.7 0C933.3 0 906.7 0 880 0C853.3 0 826.7 0 800 0C773.3 0 746.7 0 720 0C693.3 0 666.7 0 640 0C613.3 0 586.7 0 560 0C533.3 0 506.7 0 480 0C453.3 0 426.7 0 400 0C373.3 0 346.7 0 320 0C293.3 0 266.7 0 240 0C213.3 0 186.7 0 160 0C133.3 0 106.7 0 80 0C53.3 0 26.7 0 13.3 0L0 0Z" fill="#52d0ff"></path><path d="M0 86L13.3 92C26.7 98 53.3 110 80 111.5C106.7 113 133.3 104 160 98.3C186.7 92.7 213.3 90.3 240 92.7C266.7 95 293.3 102 320 104.8C346.7 107.7 373.3 106.3 400 105C426.7 103.7 453.3 102.3 480 103C506.7 103.7 533.3 106.3 560 106.7C586.7 107 613.3 105 640 105C666.7 105 693.3 107 720 111C746.7 115 773.3 121 800 119.3C826.7 117.7 853.3 108.3 880 107C906.7 105.7 933.3 112.3 946.7 115.7L960 119L960 0L946.7 0C933.3 0 906.7 0 880 0C853.3 0 826.7 0 800 0C773.3 0 746.7 0 720 0C693.3 0 666.7 0 640 0C613.3 0 586.7 0 560 0C533.3 0 506.7 0 480 0C453.3 0 426.7 0 400 0C373.3 0 346.7 0 320 0C293.3 0 266.7 0 240 0C213.3 0 186.7 0 160 0C133.3 0 106.7 0 80 0C53.3 0 26.7 0 13.3 0L0 0Z" fill="#3f9bce"></path><path d="M0 96L13.3 90C26.7 84 53.3 72 80 65.2C106.7 58.3 133.3 56.7 160 60.7C186.7 64.7 213.3 74.3 240 74.2C266.7 74 293.3 64 320 65.2C346.7 66.3 373.3 78.7 400 81.3C426.7 84 453.3 77 480 73.5C506.7 70 533.3 70 560 72.3C586.7 74.7 613.3 79.3 640 77C666.7 74.7 693.3 65.3 720 60C746.7 54.7 773.3 53.3 800 54.7C826.7 56 853.3 60 880 64.2C906.7 68.3 933.3 72.7 946.7 74.8L960 77L960 0L946.7 0C933.3 0 906.7 0 880 0C853.3 0 826.7 0 800 0C773.3 0 746.7 0 720 0C693.3 0 666.7 0 640 0C613.3 0 586.7 0 560 0C533.3 0 506.7 0 480 0C453.3 0 426.7 0 400 0C373.3 0 346.7 0 320 0C293.3 0 266.7 0 240 0C213.3 0 186.7 0 160 0C133.3 0 106.7 0 80 0C53.3 0 26.7 0 13.3 0L0 0Z" fill="#2f6a9a"></path><path d="M0 17L13.3 18.3C26.7 19.7 53.3 22.3 80 29.2C106.7 36 133.3 47 160 51.8C186.7 56.7 213.3 55.3 240 48.5C266.7 41.7 293.3 29.3 320 29.7C346.7 30 373.3 43 400 44.2C426.7 45.3 453.3 34.7 480 35.2C506.7 35.7 533.3 47.3 560 45.7C586.7 44 613.3 29 640 27C666.7 25 693.3 36 720 39.2C746.7 42.3 773.3 37.7 800 38.2C826.7 38.7 853.3 44.3 880 42.5C906.7 40.7 933.3 31.3 946.7 26.7L960 22L960 0L946.7 0C933.3 0 906.7 0 880 0C853.3 0 826.7 0 800 0C773.3 0 746.7 0 720 0C693.3 0 666.7 0 640 0C613.3 0 586.7 0 560 0C533.3 0 506.7 0 480 0C453.3 0 426.7 0 400 0C373.3 0 346.7 0 320 0C293.3 0 266.7 0 240 0C213.3 0 186.7 0 160 0C133.3 0 106.7 0 80 0C53.3 0 26.7 0 13.3 0L0 0Z" fill="#1e3d67"></path></svg>