<svg id="visual" viewBox="0 0 900 200" width="900" height="200" xmlns="http://www.w3.org/2000/svg" xmlns:xlink="http://www.w3.org/1999/xlink" version="1.1"><rect x="0" y="0" width="900" height="200" fill="#202731"></rect><path d="M0 117L16.7 122C33.3 127 66.7 137 100 142.3C133.3 147.7 166.7 148.3 200 144.2C233.3 140 266.7 131 300 131C333.3 131 366.7 140 400 143.2C433.3 146.3 466.7 143.7 500 140.2C533.3 136.7 566.7 132.3 600 129.2C633.3 126 666.7 124 700 125.3C733.3 126.7 766.7 131.3 800 135.5C833.3 139.7 866.7 143.3 883.3 145.2L900 147L900 0L883.3 0C866.7 0 833.3 0 800 0C766.7 0 733.3 0 700 0C666.7 0 633.3 0 600 0C566.7 0 533.3 0 500 0C466.7 0 433.3 0 400 0C366.7 0 333.3 0 300 0C266.7 0 233.3 0 200 0C166.7 0 133.3 0 100 0C66.7 0 33.3 0 16.7 0L0 0Z" fill="#51c0ff"></path><path d="M0 93L16.7 94.3C33.3 95.7 66.7 98.3 100 98.2C133.3 98 166.7 95 200 94C233.3 93 266.7 94 300 96C333.3 98 366.7 101 400 100.8C433.3 100.7 466.7 97.3 500 98.2C533.3 99 566.7 104 600 103.8C633.3 103.7 666.7 98.3 700 96.2C733.3 94 766.7 95 800 96.7C833.3 98.3 866.7 100.7 883.3 101.8L900 103L900 0L883.3 0C866.7 0 833.3 0 800 0C766.7 0 733.3 0 700 0C666.7 0 633.3 0 600 0C566.7 0 533.3 0 500 0C466.7 0 433.3 0 400 0C366.7 0 333.3 0 300 0C266.7 0 233.3 0 200 0C166.7 0 133.3 0 100 0C66.7 0 33.3 0 16.7 0L0 0Z" fill="#4291cc"></path><path d="M0 83L16.7 80.3C33.3 77.7 66.7 72.3 100 72C133.3 71.7 166.7 76.3 200 78.2C233.3 80 266.7 79 300 78.2C333.3 77.3 366.7 76.7 400 73.2C433.3 69.7 466.7 63.3 500 60.7C533.3 58 566.7 59 600 62.3C633.3 65.7 666.7 71.3 700 74.2C733.3 77 766.7 77 800 75.5C833.3 74 866.7 71 883.3 69.5L900 68L900 0L883.3 0C866.7 0 833.3 0 800 0C766.7 0 733.3 0 700 0C666.7 0 633.3 0 600 0C566.7 0 533.3 0 500 0C466.7 0 433.3 0 400 0C366.7 0 333.3 0 300 0C266.7 0 233.3 0 200 0C166.7 0 133.3 0 100 0C66.7 0 33.3 0 16.7 0L0 0Z" fill="#316598"></path><path d="M0 33L16.7 35.2C33.3 37.3 66.7 41.7 100 42.2C133.3 42.7 166.7 39.3 200 36.7C233.3 34 266.7 32 300 34.3C333.3 36.7 366.7 43.3 400 45.7C433.3 48 466.7 46 500 46.2C533.3 46.3 566.7 48.7 600 47.3C633.3 46 666.7 41 700 41C733.3 41 766.7 46 800 46.8C833.3 47.7 866.7 44.3 883.3 42.7L900 41L900 0L883.3 0C866.7 0 833.3 0 800 0C766.7 0 733.3 0 700 0C666.7 0 633.3 0 600 0C566.7 0 533.3 0 500 0C466.7 0 433.3 0 400 0C366.7 0 333.3 0 300 0C266.7 0 233.3 0 200 0C166.7 0 133.3 0 100 0C66.7 0 33.3 0 16.7 0L0 0Z" fill="#1e3d67"></path></svg>