<svg id="visual" viewBox="0 0 900 200" width="900" height="200" xmlns="http://www.w3.org/2000/svg" xmlns:xlink="http://www.w3.org/1999/xlink" version="1.1"><rect x="0" y="0" width="900" height="200" fill="#202731"></rect><path d="M0 81L16.7 76C33.3 71 66.7 61 100 55.7C133.3 50.3 166.7 49.7 200 53.8C233.3 58 266.7 67 300 67C333.3 67 366.7 58 400 54.8C433.3 51.7 466.7 54.3 500 57.8C533.3 61.3 566.7 65.7 600 68.8C633.3 72 666.7 74 700 72.7C733.3 71.3 766.7 66.7 800 62.5C833.3 58.3 866.7 54.7 883.3 52.8L900 51L900 201L883.3 201C866.7 201 833.3 201 800 201C766.7 201 733.3 201 700 201C666.7 201 633.3 201 600 201C566.7 201 533.3 201 500 201C466.7 201 433.3 201 400 201C366.7 201 333.3 201 300 201C266.7 201 233.3 201 200 201C166.7 201 133.3 201 100 201C66.7 201 33.3 201 16.7 201L0 201Z" fill="#51c0ff"></path><path d="M0 105L16.7 103.7C33.3 102.3 66.7 99.7 100 99.8C133.3 100 166.7 103 200 104C233.3 105 266.7 104 300 102C333.3 100 366.7 97 400 97.2C433.3 97.3 466.7 100.7 500 99.8C533.3 99 566.7 94 600 94.2C633.3 94.3 666.7 99.7 700 101.8C733.3 104 766.7 103 800 101.3C833.3 99.7 866.7 97.3 883.3 96.2L900 95L900 201L883.3 201C866.7 201 833.3 201 800 201C766.7 201 733.3 201 700 201C666.7 201 633.3 201 600 201C566.7 201 533.3 201 500 201C466.7 201 433.3 201 400 201C366.7 201 333.3 201 300 201C266.7 201 233.3 201 200 201C166.7 201 133.3 201 100 201C66.7 201 33.3 201 16.7 201L0 201Z" fill="#4291cc"></path><path d="M0 115L16.7 117.7C33.3 120.3 66.7 125.7 100 126C133.3 126.3 166.7 121.7 200 119.8C233.3 118 266.7 119 300 119.8C333.3 120.7 366.7 121.3 400 124.8C433.3 128.3 466.7 134.7 500 137.3C533.3 140 566.7 139 600 135.7C633.3 132.3 666.7 126.7 700 123.8C733.3 121 766.7 121 800 122.5C833.3 124 866.7 127 883.3 128.5L900 130L900 201L883.3 201C866.7 201 833.3 201 800 201C766.7 201 733.3 201 700 201C666.7 201 633.3 201 600 201C566.7 201 533.3 201 500 201C466.7 201 433.3 201 400 201C366.7 201 333.3 201 300 201C266.7 201 233.3 201 200 201C166.7 201 133.3 201 100 201C66.7 201 33.3 201 16.7 201L0 201Z" fill="#316598"></path><path d="M0 165L16.7 162.8C33.3 160.7 66.7 156.3 100 155.8C133.3 155.3 166.7 158.7 200 161.3C233.3 164 266.7 166 300 163.7C333.3 161.3 366.7 154.7 400 152.3C433.3 150 466.7 152 500 151.8C533.3 151.7 566.7 149.3 600 150.7C633.3 152 666.7 157 700 157C733.3 157 766.7 152 800 151.2C833.3 150.3 866.7 153.7 883.3 155.3L900 157L900 201L883.3 201C866.7 201 833.3 201 800 201C766.7 201 733.3 201 700 201C666.7 201 633.3 201 600 201C566.7 201 533.3 201 500 201C466.7 201 433.3 201 400 201C366.7 201 333.3 201 300 201C266.7 201 233.3 201 200 201C166.7 201 133.3 201 100 201C66.7 201 33.3 201 16.7 201L0 201Z" fill="#1e3d67"></path></svg>