<svg id="visual" viewBox="0 0 960 300" width="960" height="300" xmlns="http://www.w3.org/2000/svg" xmlns:xlink="http://www.w3.org/1999/xlink" version="1.1"><rect x="0" y="0" width="960" height="300" fill="#202731"></rect><path d="M0 216L13.3 214.2C26.7 212.3 53.3 208.7 80 204.3C106.7 200 133.3 195 160 195.2C186.7 195.3 213.3 200.7 240 199.5C266.7 198.3 293.3 190.7 320 189.7C346.7 188.7 373.3 194.3 400 198.5C426.7 202.7 453.3 205.3 480 207.8C506.7 210.3 533.3 212.7 560 210C586.7 207.3 613.3 199.7 640 196C666.7 192.3 693.3 192.7 720 197C746.7 201.3 773.3 209.7 800 213.2C826.7 216.7 853.3 215.3 880 210.8C906.7 206.3 933.3 198.7 946.7 194.8L960 191L960 301L946.7 301C933.3 301 906.7 301 880 301C853.3 301 826.7 301 800 301C773.3 301 746.7 301 720 301C693.3 301 666.7 301 640 301C613.3 301 586.7 301 560 301C533.3 301 506.7 301 480 301C453.3 301 426.7 301 400 301C373.3 301 346.7 301 320 301C293.3 301 266.7 301 240 301C213.3 301 186.7 301 160 301C133.3 301 106.7 301 80 301C53.3 301 26.7 301 13.3 301L0 301Z" fill="#ff9797"></path><path d="M0 210L13.3 213.8C26.7 217.7 53.3 225.3 80 227.7C106.7 230 133.3 227 160 226.2C186.7 225.3 213.3 226.7 240 223.7C266.7 220.7 293.3 213.3 320 211.5C346.7 209.7 373.3 213.3 400 216.8C426.7 220.3 453.3 223.7 480 221.8C506.7 220 533.3 213 560 212.2C586.7 211.3 613.3 216.7 640 216C666.7 215.3 693.3 208.7 720 210C746.7 211.3 773.3 220.7 800 224C826.7 227.3 853.3 224.7 880 223.7C906.7 222.7 933.3 223.3 946.7 223.7L960 224L960 301L946.7 301C933.3 301 906.7 301 880 301C853.3 301 826.7 301 800 301C773.3 301 746.7 301 720 301C693.3 301 666.7 301 640 301C613.3 301 586.7 301 560 301C533.3 301 506.7 301 480 301C453.3 301 426.7 301 400 301C373.3 301 346.7 301 320 301C293.3 301 266.7 301 240 301C213.3 301 186.7 301 160 301C133.3 301 106.7 301 80 301C53.3 301 26.7 301 13.3 301L0 301Z" fill="#ea7774"></path><path d="M0 245L13.3 242.3C26.7 239.7 53.3 234.3 80 234C106.7 233.7 133.3 238.3 160 237.5C186.7 236.7 213.3 230.3 240 229.2C266.7 228 293.3 232 320 231.8C346.7 231.7 373.3 227.3 400 227.5C426.7 227.7 453.3 232.3 480 237C506.7 241.7 533.3 246.3 560 244.5C586.7 242.7 613.3 234.3 640 231.2C666.7 228 693.3 230 720 230.3C746.7 230.7 773.3 229.3 800 232C826.7 234.7 853.3 241.3 880 241C906.7 240.7 933.3 233.3 946.7 229.7L960 226L960 301L946.7 301C933.3 301 906.7 301 880 301C853.3 301 826.7 301 800 301C773.3 301 746.7 301 720 301C693.3 301 666.7 301 640 301C613.3 301 586.7 301 560 301C533.3 301 506.7 301 480 301C453.3 301 426.7 301 400 301C373.3 301 346.7 301 320 301C293.3 301 266.7 301 240 301C213.3 301 186.7 301 160 301C133.3 301 106.7 301 80 301C53.3 301 26.7 301 13.3 301L0 301Z" fill="#d45852"></path><path d="M0 256L13.3 256.8C26.7 257.7 53.3 259.3 80 260C106.7 260.7 133.3 260.3 160 259C186.7 257.7 213.3 255.3 240 255.8C266.7 256.3 293.3 259.7 320 260.7C346.7 261.7 373.3 260.3 400 258.2C426.7 256 453.3 253 480 253.8C506.7 254.7 533.3 259.3 560 259C586.7 258.7 613.3 253.3 640 253C666.7 252.7 693.3 257.3 720 257C746.7 256.7 773.3 251.3 800 251.3C826.7 251.3 853.3 256.7 880 258.5C906.7 260.3 933.3 258.7 946.7 257.8L960 257L960 301L946.7 301C933.3 301 906.7 301 880 301C853.3 301 826.7 301 800 301C773.3 301 746.7 301 720 301C693.3 301 666.7 301 640 301C613.3 301 586.7 301 560 301C533.3 301 506.7 301 480 301C453.3 301 426.7 301 400 301C373.3 301 346.7 301 320 301C293.3 301 266.7 301 240 301C213.3 301 186.7 301 160 301C133.3 301 106.7 301 80 301C53.3 301 26.7 301 13.3 301L0 301Z" fill="#bc3830"></path><path d="M0 269L13.3 269.8C26.7 270.7 53.3 272.3 80 274.2C106.7 276 133.3 278 160 279.3C186.7 280.7 213.3 281.3 240 281C266.7 280.7 293.3 279.3 320 278.5C346.7 277.7 373.3 277.3 400 276.2C426.7 275 453.3 273 480 272.2C506.7 271.3 533.3 271.7 560 270.8C586.7 270 613.3 268 640 268.3C666.7 268.7 693.3 271.3 720 272.7C746.7 274 773.3 274 800 274.2C826.7 274.3 853.3 274.7 880 273.2C906.7 271.7 933.3 268.3 946.7 266.7L960 265L960 301L946.7 301C933.3 301 906.7 301 880 301C853.3 301 826.7 301 800 301C773.3 301 746.7 301 720 301C693.3 301 666.7 301 640 301C613.3 301 586.7 301 560 301C533.3 301 506.7 301 480 301C453.3 301 426.7 301 400 301C373.3 301 346.7 301 320 301C293.3 301 266.7 301 240 301C213.3 301 186.7 301 160 301C133.3 301 106.7 301 80 301C53.3 301 26.7 301 13.3 301L0 301Z" fill="#a20d0d"></path></svg>