<svg id="visual" viewBox="0 0 960 300" width="960" height="300" xmlns="http://www.w3.org/2000/svg" xmlns:xlink="http://www.w3.org/1999/xlink" version="1.1"><rect x="0" y="0" width="960" height="300" fill="#202731"></rect><path d="M0 123L40 132.7C80 142.3 160 161.7 240 163.3C320 165 400 149 480 152.5C560 156 640 179 720 185C800 191 880 180 920 174.5L960 169L960 0L920 0C880 0 800 0 720 0C640 0 560 0 480 0C400 0 320 0 240 0C160 0 80 0 40 0L0 0Z" fill="#66b8ee"></path><path d="M0 133L40 134.8C80 136.7 160 140.3 240 133.7C320 127 400 110 480 106.3C560 102.7 640 112.3 720 122.2C800 132 880 142 920 147L960 152L960 0L920 0C880 0 800 0 720 0C640 0 560 0 480 0C400 0 320 0 240 0C160 0 80 0 40 0L0 0Z" fill="#2b9ef4"></path><path d="M0 67L40 68.5C80 70 160 73 240 77.3C320 81.7 400 87.3 480 92.8C560 98.3 640 103.7 720 100C800 96.3 880 83.7 920 77.3L960 71L960 0L920 0C880 0 800 0 720 0C640 0 560 0 480 0C400 0 320 0 240 0C160 0 80 0 40 0L0 0Z" fill="#0081f5"></path><path d="M0 49L40 48C80 47 160 45 240 53.3C320 61.7 400 80.3 480 85.8C560 91.3 640 83.7 720 84C800 84.3 880 92.7 920 96.8L960 101L960 0L920 0C880 0 800 0 720 0C640 0 560 0 480 0C400 0 320 0 240 0C160 0 80 0 40 0L0 0Z" fill="#005eee"></path><path d="M0 29L40 33.7C80 38.3 160 47.7 240 49.3C320 51 400 45 480 40.8C560 36.7 640 34.3 720 30C800 25.7 880 19.3 920 16.2L960 13L960 0L920 0C880 0 800 0 720 0C640 0 560 0 480 0C400 0 320 0 240 0C160 0 80 0 40 0L0 0Z" fill="#3c31dd"></path></svg>